<svg xmlns="http://www.w3.org/2000/svg" xmlns:xlink="http://www.w3.org/1999/xlink" viewBox="0,0,256,256" width="144px" height="144px"><g fill="#424949" fill-rule="nonzero" stroke="none" stroke-width="1" stroke-linecap="butt" stroke-linejoin="miter" stroke-miterlimit="10" stroke-dasharray="" stroke-dashoffset="0" font-family="none" font-weight="none" font-size="none" text-anchor="none" style="mix-blend-mode: normal"><g transform="scale(5.33333,5.33333)"><path d="M13.5,6c-4.1245,0 -7.5,3.3755 -7.5,7.5v21c0,4.1245 3.3755,7.5 7.5,7.5h21c4.1245,0 7.5,-3.3755 7.5,-7.5v-21c0,-4.1245 -3.3755,-7.5 -7.5,-7.5zM13.5,9h21c2.5035,0 4.5,1.9965 4.5,4.5v21c0,2.5035 -1.9965,4.5 -4.5,4.5h-21c-2.5035,0 -4.5,-1.9965 -4.5,-4.5v-21c0,-2.5035 1.9965,-4.5 4.5,-4.5zM16.5,15c-0.82839,0.00008 -1.49992,0.67161 -1.5,1.5v15c-0.00765,0.54095 0.27656,1.04412 0.74381,1.31683c0.46725,0.27271 1.04514,0.27271 1.51238,0c0.46725,-0.27271 0.75146,-0.77588 0.74381,-1.31683v-5.5h1c3.01977,0 5.5,-2.48023 5.5,-5.5c0,-3.01977 -2.48023,-5.5 -5.5,-5.5zM18,18h1c1.39823,0 2.5,1.10177 2.5,2.5c0,1.39823 -1.10177,2.5 -2.5,2.5h-1zM29.05078,21c-2.05314,0 -3.75,1.69686 -3.75,3.75c0,2.05314 1.69686,3.75 3.75,3.75h1.19922c0.43286,0 0.75,0.31714 0.75,0.75c0,0.43286 -0.31714,0.75 -0.75,0.75h-2.15039c-0.13446,0 -0.24041,-0.04629 -0.33008,-0.125c-0.01763,-0.01546 -0.03516,-0.03098 -0.04687,-0.04492c-0.33803,-0.43118 -0.88424,-0.64378 -1.42481,-0.55458c-0.54058,0.08919 -0.98953,0.466 -1.17113,0.98291c-0.1816,0.51691 -0.06695,1.09172 0.29907,1.4994c0.11429,0.13606 0.23687,0.26051 0.36523,0.37305c0.61433,0.53929 1.43105,0.86914 2.30859,0.86914h2.15039c2.05314,0 3.75,-1.69686 3.75,-3.75c0,-2.05314 -1.69686,-3.75 -3.75,-3.75h-1.19922c-0.43286,0 -0.75,-0.31714 -0.75,-0.75c0,-0.43286 0.31714,-0.75 0.75,-0.75h1.34961c0.22697,0 0.39681,0.13668 0.4668,0.32031c0.18177,0.51322 0.62735,0.88766 1.1642,0.97835c0.53685,0.09069 1.0807,-0.11662 1.42097,-0.54165c0.34027,-0.42503 0.42354,-1.00106 0.21756,-1.50506c-0.50401,-1.32237 -1.79051,-2.25195 -3.26953,-2.25195z"></path></g></g></svg>